<svg width="71" height="26" viewBox="0 0 71 26" fill="none" xmlns="http://www.w3.org/2000/svg">
<rect width="71" height="26" fill="white"/>
<path d="M25.2361 10.63C25.0628 10.63 24.9161 10.57 24.7961 10.45C24.6761 10.33 24.6161 10.1833 24.6161 10.01C24.6161 9.83667 24.6761 9.69 24.7961 9.57C24.9161 9.45 25.0628 9.39 25.2361 9.39C25.4028 9.39 25.5428 9.45 25.6561 9.57C25.7761 9.69 25.8361 9.83667 25.8361 10.01C25.8361 10.1833 25.7761 10.33 25.6561 10.45C25.5428 10.57 25.4028 10.63 25.2361 10.63ZM25.6761 11.52V17H24.7661V11.52H25.6761ZM29.897 11.42C30.5637 11.42 31.1037 11.6233 31.517 12.03C31.9304 12.43 32.137 13.01 32.137 13.77V17H31.237V13.9C31.237 13.3533 31.1004 12.9367 30.827 12.65C30.5537 12.3567 30.1804 12.21 29.707 12.21C29.227 12.21 28.8437 12.36 28.557 12.66C28.277 12.96 28.137 13.3967 28.137 13.97V17H27.227V11.52H28.137V12.3C28.317 12.02 28.5604 11.8033 28.867 11.65C29.1804 11.4967 29.5237 11.42 29.897 11.42ZM38.2295 17.09C37.8095 17.09 37.4329 17.02 37.0995 16.88C36.7662 16.7333 36.5029 16.5333 36.3095 16.28C36.1162 16.02 36.0095 15.7233 35.9895 15.39H36.9295C36.9562 15.6633 37.0829 15.8867 37.3095 16.06C37.5429 16.2333 37.8462 16.32 38.2195 16.32C38.5662 16.32 38.8395 16.2433 39.0395 16.09C39.2395 15.9367 39.3395 15.7433 39.3395 15.51C39.3395 15.27 39.2329 15.0933 39.0195 14.98C38.8062 14.86 38.4762 14.7433 38.0295 14.63C37.6229 14.5233 37.2895 14.4167 37.0295 14.31C36.7762 14.1967 36.5562 14.0333 36.3695 13.82C36.1895 13.6 36.0995 13.3133 36.0995 12.96C36.0995 12.68 36.1829 12.4233 36.3495 12.19C36.5162 11.9567 36.7529 11.7733 37.0595 11.64C37.3662 11.5 37.7162 11.43 38.1095 11.43C38.7162 11.43 39.2062 11.5833 39.5795 11.89C39.9529 12.1967 40.1529 12.6167 40.1795 13.15H39.2695C39.2495 12.8633 39.1329 12.6333 38.9195 12.46C38.7129 12.2867 38.4329 12.2 38.0795 12.2C37.7529 12.2 37.4929 12.27 37.2995 12.41C37.1062 12.55 37.0095 12.7333 37.0095 12.96C37.0095 13.14 37.0662 13.29 37.1795 13.41C37.2995 13.5233 37.4462 13.6167 37.6195 13.69C37.7995 13.7567 38.0462 13.8333 38.3595 13.92C38.7529 14.0267 39.0729 14.1333 39.3195 14.24C39.5662 14.34 39.7762 14.4933 39.9495 14.7C40.1295 14.9067 40.2229 15.1767 40.2295 15.51C40.2295 15.81 40.1462 16.08 39.9795 16.32C39.8129 16.56 39.5762 16.75 39.2695 16.89C38.9695 17.0233 38.6229 17.09 38.2295 17.09ZM42.6241 12.27V15.5C42.6241 15.7667 42.6808 15.9567 42.7941 16.07C42.9075 16.1767 43.1041 16.23 43.3841 16.23H44.0541V17H43.2341C42.7275 17 42.3475 16.8833 42.0941 16.65C41.8408 16.4167 41.7141 16.0333 41.7141 15.5V12.27H41.0041V11.52H41.7141V10.14H42.6241V11.52H44.0541V12.27H42.6241ZM47.5467 17.09C47.0334 17.09 46.5667 16.9733 46.1467 16.74C45.7334 16.5067 45.4067 16.1767 45.1667 15.75C44.9334 15.3167 44.8167 14.8167 44.8167 14.25C44.8167 13.69 44.9367 13.1967 45.1767 12.77C45.4234 12.3367 45.7567 12.0067 46.1767 11.78C46.5967 11.5467 47.0667 11.43 47.5867 11.43C48.1067 11.43 48.5767 11.5467 48.9967 11.78C49.4167 12.0067 49.7467 12.3333 49.9867 12.76C50.2334 13.1867 50.3567 13.6833 50.3567 14.25C50.3567 14.8167 50.2301 15.3167 49.9767 15.75C49.7301 16.1767 49.3934 16.5067 48.9667 16.74C48.5401 16.9733 48.0667 17.09 47.5467 17.09ZM47.5467 16.29C47.8734 16.29 48.1801 16.2133 48.4667 16.06C48.7534 15.9067 48.9834 15.6767 49.1567 15.37C49.3367 15.0633 49.4267 14.69 49.4267 14.25C49.4267 13.81 49.3401 13.4367 49.1667 13.13C48.9934 12.8233 48.7667 12.5967 48.4867 12.45C48.2067 12.2967 47.9034 12.22 47.5767 12.22C47.2434 12.22 46.9367 12.2967 46.6567 12.45C46.3834 12.5967 46.1634 12.8233 45.9967 13.13C45.8301 13.4367 45.7467 13.81 45.7467 14.25C45.7467 14.6967 45.8267 15.0733 45.9867 15.38C46.1534 15.6867 46.3734 15.9167 46.6467 16.07C46.9201 16.2167 47.2201 16.29 47.5467 16.29ZM51.2132 14.25C51.2132 13.6833 51.3265 13.19 51.5532 12.77C51.7799 12.3433 52.0932 12.0133 52.4932 11.78C52.8999 11.5467 53.3632 11.43 53.8832 11.43C54.5565 11.43 55.1099 11.5933 55.5432 11.92C55.9832 12.2467 56.2732 12.7 56.4132 13.28H55.4332C55.3399 12.9467 55.1565 12.6833 54.8832 12.49C54.6165 12.2967 54.2832 12.2 53.8832 12.2C53.3632 12.2 52.9432 12.38 52.6232 12.74C52.3032 13.0933 52.1432 13.5967 52.1432 14.25C52.1432 14.91 52.3032 15.42 52.6232 15.78C52.9432 16.14 53.3632 16.32 53.8832 16.32C54.2832 16.32 54.6165 16.2267 54.8832 16.04C55.1499 15.8533 55.3332 15.5867 55.4332 15.24H56.4132C56.2665 15.8 55.9732 16.25 55.5332 16.59C55.0932 16.9233 54.5432 17.09 53.8832 17.09C53.3632 17.09 52.8999 16.9733 52.4932 16.74C52.0932 16.5067 51.7799 16.1767 51.5532 15.75C51.3265 15.3233 51.2132 14.8233 51.2132 14.25ZM60.6874 17L58.5374 14.58V17H57.6274V9.6H58.5374V13.95L60.6474 11.52H61.9174L59.3374 14.25L61.9274 17H60.6874Z" fill="#78A962"/>
<circle cx="13" cy="13" r="5" fill="#78A962"/>
<path d="M15 12L12.484 15L11 13.2785" stroke="white" stroke-linecap="round"/>
</svg>
